<mxfile host="app.diagrams.net" modified="2023-08-29T02:39:27.265Z" agent="Mozilla/5.0 (Windows NT 10.0; Win64; x64) AppleWebKit/537.36 (KHTML, like Gecko) Chrome/116.0.0.0 Safari/537.36" etag="4PmGl7IEsJkDZ8Vizofn" version="21.6.9" type="github">
  <diagram name="Page-1" id="IYR7S6LY0TD1NXffe4BL">
    <mxGraphModel dx="954" dy="610" grid="1" gridSize="10" guides="1" tooltips="1" connect="1" arrows="1" fold="1" page="1" pageScale="1" pageWidth="850" pageHeight="1100" math="0" shadow="0">
      <root>
        <mxCell id="0" />
        <mxCell id="1" parent="0" />
        <mxCell id="SOHPiQstVyoE47daT1W4-25" value="" style="rounded=0;whiteSpace=wrap;html=1;fontStyle=2" vertex="1" parent="1">
          <mxGeometry x="280" y="110" width="160" height="270" as="geometry" />
        </mxCell>
        <mxCell id="SOHPiQstVyoE47daT1W4-5" value="Computer" style="shape=umlActor;verticalLabelPosition=bottom;verticalAlign=top;html=1;outlineConnect=0;fillColor=#f5f5f5;gradientColor=#b3b3b3;strokeColor=#666666;" vertex="1" parent="1">
          <mxGeometry x="71" y="167" width="160" height="220" as="geometry" />
        </mxCell>
        <mxCell id="SOHPiQstVyoE47daT1W4-9" value="Random Angka" style="ellipse;whiteSpace=wrap;html=1;" vertex="1" parent="1">
          <mxGeometry x="300" y="150" width="120" height="50" as="geometry" />
        </mxCell>
        <mxCell id="SOHPiQstVyoE47daT1W4-11" value="Game Tebak Angka" style="text;html=1;strokeColor=none;fillColor=none;align=center;verticalAlign=middle;whiteSpace=wrap;rounded=0;fontSize=14;fontStyle=1" vertex="1" parent="1">
          <mxGeometry x="294" y="120" width="136" height="30" as="geometry" />
        </mxCell>
        <mxCell id="SOHPiQstVyoE47daT1W4-12" value="Cek Angka" style="ellipse;whiteSpace=wrap;html=1;" vertex="1" parent="1">
          <mxGeometry x="300" y="230" width="120" height="50" as="geometry" />
        </mxCell>
        <mxCell id="SOHPiQstVyoE47daT1W4-14" value="Tebak angka" style="ellipse;whiteSpace=wrap;html=1;" vertex="1" parent="1">
          <mxGeometry x="300" y="307" width="120" height="53" as="geometry" />
        </mxCell>
        <mxCell id="SOHPiQstVyoE47daT1W4-16" value="" style="endArrow=classic;html=1;rounded=0;entryX=0;entryY=0.5;entryDx=0;entryDy=0;exitX=1;exitY=0.3333333333333333;exitDx=0;exitDy=0;exitPerimeter=0;" edge="1" parent="1" source="SOHPiQstVyoE47daT1W4-5" target="SOHPiQstVyoE47daT1W4-9">
          <mxGeometry width="50" height="50" relative="1" as="geometry">
            <mxPoint x="218" y="258" as="sourcePoint" />
            <mxPoint x="268" y="208" as="targetPoint" />
            <Array as="points">
              <mxPoint x="280" y="175" />
            </Array>
          </mxGeometry>
        </mxCell>
        <mxCell id="SOHPiQstVyoE47daT1W4-17" value="" style="endArrow=classic;html=1;rounded=0;exitX=1;exitY=0.3333333333333333;exitDx=0;exitDy=0;exitPerimeter=0;" edge="1" parent="1" source="SOHPiQstVyoE47daT1W4-5">
          <mxGeometry width="50" height="50" relative="1" as="geometry">
            <mxPoint x="220" y="258" as="sourcePoint" />
            <mxPoint x="300.21920105749723" y="255.13502853366083" as="targetPoint" />
            <Array as="points">
              <mxPoint x="290" y="240" />
            </Array>
          </mxGeometry>
        </mxCell>
        <mxCell id="SOHPiQstVyoE47daT1W4-18" value="" style="endArrow=classic;html=1;rounded=0;entryX=1;entryY=0.5;entryDx=0;entryDy=0;exitX=0;exitY=0.3333333333333333;exitDx=0;exitDy=0;exitPerimeter=0;" edge="1" parent="1" target="SOHPiQstVyoE47daT1W4-14">
          <mxGeometry width="50" height="50" relative="1" as="geometry">
            <mxPoint x="500" y="240.66666666666663" as="sourcePoint" />
            <mxPoint x="500" y="260" as="targetPoint" />
          </mxGeometry>
        </mxCell>
        <mxCell id="SOHPiQstVyoE47daT1W4-31" value="Computer" style="shape=umlActor;verticalLabelPosition=bottom;verticalAlign=top;html=1;outlineConnect=0;fillColor=#f5f5f5;gradientColor=#b3b3b3;strokeColor=#666666;" vertex="1" parent="1">
          <mxGeometry x="500" y="167" width="160" height="220" as="geometry" />
        </mxCell>
        <mxCell id="SOHPiQstVyoE47daT1W4-26" value="" style="verticalLabelPosition=bottom;verticalAlign=top;html=1;shape=mxgraph.basic.smiley;align=center;" vertex="1" parent="1">
          <mxGeometry x="535" y="134" width="90" height="90" as="geometry" />
        </mxCell>
        <mxCell id="SOHPiQstVyoE47daT1W4-33" value="" style="ellipse;whiteSpace=wrap;html=1;aspect=fixed;" vertex="1" parent="1">
          <mxGeometry x="111" y="150" width="80" height="80" as="geometry" />
        </mxCell>
        <mxCell id="SOHPiQstVyoE47daT1W4-34" value="" style="shape=cross;whiteSpace=wrap;html=1;" vertex="1" parent="1">
          <mxGeometry x="111" y="150" width="79" height="80" as="geometry" />
        </mxCell>
      </root>
    </mxGraphModel>
  </diagram>
</mxfile>
